<?xml version="1.0" encoding="UTF-8"?>
<svg xmlns="http://www.w3.org/2000/svg" xmlns:xlink="http://www.w3.org/1999/xlink" width="450px" height="220px" viewBox="0 0 450 220" version="1.1">
<defs>
<filter id="alpha" filterUnits="objectBoundingBox" x="0%" y="0%" width="100%" height="100%">
  <feColorMatrix type="matrix" in="SourceGraphic" values="0 0 0 0 1 0 0 0 0 1 0 0 0 0 1 0 0 0 1 0"/>
</filter>
<mask id="mask0">
  <g filter="url(#alpha)">
<rect x="0" y="0" width="450" height="220" style="fill:rgb(0%,0%,0%);fill-opacity:0.101961;stroke:none;"/>
  </g>
</mask>
<clipPath id="clip1">
  <rect x="0" y="0" width="450" height="220"/>
</clipPath>
<g id="surface5" clip-path="url(#clip1)">
<path style=" stroke:none;fill-rule:nonzero;fill:rgb(0%,0%,0%);fill-opacity:1;" d="M 204.589844 110.972656 C 204.589844 110.972656 209.078125 106.972656 207.453125 100.859375 C 205.828125 94.746094 196.898438 91.320312 196.898438 91.320312 C 196.898438 91.320312 191.128906 93.871094 196.898438 100.421875 C 196.898438 100.421875 189.84375 104.058594 195.613281 109.882812 "/>
</g>
<mask id="mask1">
  <g filter="url(#alpha)">
<rect x="0" y="0" width="450" height="220" style="fill:rgb(0%,0%,0%);fill-opacity:0.101961;stroke:none;"/>
  </g>
</mask>
<clipPath id="clip2">
  <rect x="0" y="0" width="450" height="220"/>
</clipPath>
<g id="surface8" clip-path="url(#clip2)">
<path style=" stroke:none;fill-rule:nonzero;fill:rgb(0%,0%,0%);fill-opacity:1;" d="M 189.523438 90.777344 L 186 87.683594 C 186 87.683594 169.332031 86.226562 171.253906 89.503906 C 173.179688 92.777344 180.871094 91.320312 180.871094 91.320312 L 185.359375 93.871094 Z M 189.523438 90.777344 "/>
</g>
</defs>
<g id="surface1">
<path style=" stroke:none;fill-rule:nonzero;fill:rgb(42.352941%,38.823529%,100%);fill-opacity:1;" d="M 111.605469 70.648438 C 111.605469 70.648438 63.5 80.054688 54.273438 88.738281 C 45.050781 97.421875 111.605469 70.648438 111.605469 70.648438 Z M 111.605469 70.648438 "/>
<path style=" stroke:none;fill-rule:nonzero;fill:rgb(24.705882%,23.921569%,33.72549%);fill-opacity:1;" d="M 28.488281 100.757812 C 27.8125 100.785156 27.144531 100.644531 26.664062 100.375 C 25.167969 99.609375 26.390625 98.164062 27.441406 97.140625 C 41.515625 83.445312 112.28125 69.011719 115.285156 68.402344 L 121.753906 67.09375 L 116.214844 69.398438 C 116.007812 69.484375 95.421875 78.039062 74.347656 86.097656 C 41.582031 98.628906 31.855469 100.757812 28.488281 100.757812 Z M 108.996094 70.964844 C 90.414062 75.046875 40.335938 86.847656 29.175781 97.714844 C 27.6875 99.160156 28.003906 99.523438 28.007812 99.527344 C 28.308594 99.710938 32.109375 100.867188 72.980469 85.246094 C 87.230469 79.800781 101.285156 74.117188 108.996094 70.964844 Z M 108.996094 70.964844 "/>
<path style=" stroke:none;fill-rule:nonzero;fill:rgb(42.352941%,38.823529%,100%);fill-opacity:1;" d="M 110.5625 61.253906 C 110.5625 61.253906 66.234375 58.667969 52.785156 63.089844 C 39.335938 67.507812 110.5625 61.253906 110.5625 61.253906 Z M 110.5625 61.253906 "/>
<path style=" stroke:none;fill-rule:nonzero;fill:rgb(24.705882%,23.921569%,33.72549%);fill-opacity:1;" d="M 50.15625 65.484375 C 34.636719 65.484375 33.570312 64.070312 33.082031 63.425781 C 32.109375 62.132812 34.820312 60.917969 35.714844 60.515625 C 54.957031 51.890625 113.402344 60.609375 115.878906 60.984375 L 120.632812 61.703125 L 115.761719 62.097656 C 115.566406 62.113281 95.984375 63.695312 76.222656 64.683594 C 64.699219 65.261719 56.292969 65.484375 50.15625 65.484375 Z M 63.753906 57.882812 C 52.824219 57.882812 42.824219 58.78125 36.957031 61.410156 C 35.1875 62.203125 34.75 62.738281 34.929688 62.976562 C 35.378906 63.570312 39.671875 65.371094 76.046875 63.550781 C 89.601562 62.871094 103.070312 61.910156 110.226562 61.375 C 101.058594 60.175781 81.21875 57.882812 63.753906 57.882812 Z M 63.753906 57.882812 "/>
<path style=" stroke:none;fill-rule:nonzero;fill:rgb(42.352941%,38.823529%,100%);fill-opacity:1;" d="M 123.25 56.820312 C 123.25 56.820312 100.953125 26.425781 106.355469 23.417969 C 111.757812 20.410156 123.25 56.820312 123.25 56.820312 Z M 123.25 56.820312 "/>
<path style=" stroke:none;fill-rule:nonzero;fill:rgb(24.705882%,23.921569%,33.72549%);fill-opacity:1;" d="M 124.484375 59.496094 L 121.710938 55.472656 C 121.644531 55.375 114.859375 45.507812 109.269531 35.351562 C 97.753906 14.433594 102.472656 12.648438 104.023438 12.058594 C 104.804688 11.742188 105.828125 11.695312 106.691406 11.933594 C 115.386719 14.234375 122.824219 51.015625 123.644531 55.203125 Z M 105.550781 12.921875 C 105.402344 12.925781 105.257812 12.957031 105.136719 13.007812 C 99.597656 15.105469 110.832031 35.753906 120.707031 50.785156 C 117.320312 35.285156 111.082031 14.351562 105.84375 12.964844 C 105.753906 12.9375 105.652344 12.925781 105.550781 12.921875 Z M 105.550781 12.921875 "/>
<path style=" stroke:none;fill-rule:nonzero;fill:rgb(42.352941%,38.823529%,100%);fill-opacity:1;" d="M 131.679688 63.503906 C 131.679688 63.503906 143.648438 32.78125 156.1875 32.78125 C 168.722656 32.78125 131.679688 63.503906 131.679688 63.503906 Z M 131.679688 63.503906 "/>
<path style=" stroke:none;fill-rule:nonzero;fill:rgb(24.705882%,23.921569%,33.72549%);fill-opacity:1;" d="M 128.519531 65.625 L 129.707031 63.097656 C 130.574219 61.242188 151.238281 17.664062 173.832031 17.664062 C 176.929688 17.664062 178.265625 18.488281 178.839844 19.179688 C 184.863281 26.421875 136.933594 59.820312 131.449219 63.605469 Z M 173.832031 18.800781 C 155.800781 18.800781 137.875 51.15625 132.960938 60.746094 C 149.132812 49.335938 181.367188 24.886719 177.023438 19.664062 C 176.847656 19.453125 176.304688 18.800781 173.832031 18.800781 Z M 173.832031 18.800781 "/>
<path style=" stroke:none;fill-rule:nonzero;fill:rgb(42.352941%,38.823529%,100%);fill-opacity:1;" d="M 138.703125 63.8125 C 138.703125 63.8125 179.851562 49.050781 264.15625 53.554688 C 348.460938 58.0625 138.703125 63.8125 138.703125 63.8125 Z M 138.703125 63.8125 "/>
<path style=" stroke:none;fill-rule:nonzero;fill:rgb(24.705882%,23.921569%,33.72549%);fill-opacity:1;" d="M 135.898438 64.429688 L 138.050781 63.378906 C 138.488281 63.167969 148.976562 58.132812 169.996094 54.085938 C 189.335938 50.359375 221.578125 46.851562 265.335938 51.285156 C 283.824219 53.160156 286.222656 54.558594 286.0625 55.789062 C 285.902344 57.003906 285.53125 59.847656 211.667969 62.488281 C 175.570312 63.777344 139.097656 64.375 138.734375 64.382812 Z M 225.621094 50.355469 C 178.09375 50.355469 149.992188 59.941406 141.84375 63.1875 C 151.488281 63.011719 181.648438 62.417969 211.542969 61.347656 C 280.183594 58.898438 283.992188 56.214844 284.0625 55.703125 C 284.070312 55.648438 284.015625 54.335938 264.984375 52.410156 C 251.996094 51.066406 238.824219 50.378906 225.621094 50.355469 Z M 225.621094 50.355469 "/>
<path style=" stroke:none;fill-rule:nonzero;fill:rgb(42.352941%,38.823529%,100%);fill-opacity:1;" d="M 164.796875 65.542969 C 164.796875 65.542969 236.875 64.996094 240.925781 69.367188 C 244.972656 73.734375 164.796875 65.542969 164.796875 65.542969 Z M 164.796875 65.542969 "/>
<path style=" stroke:none;fill-rule:nonzero;fill:rgb(24.705882%,23.921569%,33.72549%);fill-opacity:1;" d="M 250.15625 76.707031 C 227.148438 76.707031 171.847656 67.328125 164.507812 66.066406 L 158.492188 65.03125 L 164.777344 64.953125 C 173.996094 64.835938 255 64.070312 260.09375 73.328125 C 260.699219 74.425781 260 75.128906 259.304688 75.527344 C 257.855469 76.355469 254.609375 76.707031 250.15625 76.707031 Z M 171.371094 66.039062 C 205.179688 71.664062 252.125 78.019531 257.878906 74.722656 C 258.191406 74.542969 258.507812 74.261719 258.179688 73.667969 C 254.558594 67.089844 199.3125 65.929688 171.371094 66.039062 Z M 171.371094 66.039062 "/>
<path style=" stroke:none;fill-rule:nonzero;fill:rgb(42.352941%,38.823529%,100%);fill-opacity:1;" d="M 150.746094 70.078125 C 150.746094 70.078125 194.28125 81.503906 185.777344 85.015625 C 177.269531 88.53125 150.746094 70.078125 150.746094 70.078125 Z M 150.746094 70.078125 "/>
<path style=" stroke:none;fill-rule:nonzero;fill:rgb(24.705882%,23.921569%,33.72549%);fill-opacity:1;" d="M 212.902344 98.839844 C 191.84375 98.839844 148.964844 70.082031 146.96875 68.738281 L 144.144531 66.832031 L 148.148438 67.851562 C 151.066406 68.59375 219.675781 86.148438 221.175781 94.945312 C 221.375 96.109375 220.472656 97.128906 218.570312 97.894531 C 216.902344 98.539062 214.917969 98.871094 212.902344 98.839844 Z M 151.460938 69.960938 C 168.019531 80.746094 204.859375 101.992188 217.410156 96.960938 C 218.746094 96.425781 219.308594 95.820312 219.179688 95.054688 C 218.097656 88.730469 173.265625 75.695312 151.460938 69.960938 Z M 151.460938 69.960938 "/>
<path style=" stroke:none;fill-rule:nonzero;fill:rgb(42.352941%,38.823529%,100%);fill-opacity:1;" d="M 223.007812 83.753906 C 223.007812 83.753906 259.136719 92.300781 251.109375 97.996094 C 243.082031 103.695312 223.007812 83.753906 223.007812 83.753906 Z M 223.007812 83.753906 "/>
<path style=" stroke:none;fill-rule:nonzero;fill:rgb(42.352941%,38.823529%,100%);fill-opacity:1;" d="M 155.765625 76.917969 C 155.765625 76.917969 231.035156 123.636719 224.011719 126.484375 C 216.984375 129.332031 155.765625 76.917969 155.765625 76.917969 Z M 155.765625 76.917969 "/>
<path style=" stroke:none;fill-rule:nonzero;fill:rgb(42.352941%,38.823529%,100%);fill-opacity:1;" d="M 141.714844 73.496094 C 141.714844 73.496094 173.40625 103.460938 166.9375 106.375 C 160.472656 109.289062 141.714844 73.496094 141.714844 73.496094 Z M 141.714844 73.496094 "/>
<path style=" stroke:none;fill-rule:nonzero;fill:rgb(24.705882%,23.921569%,33.72549%);fill-opacity:1;" d="M 177.585938 117.597656 C 177.191406 117.597656 176.796875 117.558594 176.421875 117.488281 C 164.804688 115.320312 141.390625 76.402344 138.757812 71.96875 L 136.417969 68.03125 L 140.539062 71.46875 C 140.660156 71.570312 152.980469 81.863281 163.910156 92.511719 C 184.117188 112.195312 182.441406 116.066406 179.425781 117.265625 C 178.886719 117.484375 178.246094 117.597656 177.585938 117.597656 Z M 143.210938 75.804688 C 151.753906 89.566406 168.949219 114.894531 177.050781 116.40625 C 177.453125 116.503906 177.914062 116.476562 178.273438 116.332031 C 179.933594 115.671875 181.683594 112.089844 162.179688 93.089844 C 155.261719 86.347656 147.78125 79.75 143.210938 75.804688 Z M 143.210938 75.804688 "/>
<path style=" stroke:none;fill-rule:nonzero;fill:rgb(42.352941%,38.823529%,100%);fill-opacity:1;" d="M 128.308594 72.359375 C 128.308594 72.359375 99.785156 120.136719 117.289062 119.644531 C 134.789062 119.152344 128.308594 72.359375 128.308594 72.359375 Z M 128.308594 72.359375 "/>
<path style=" stroke:none;fill-rule:nonzero;fill:rgb(24.705882%,23.921569%,33.72549%);fill-opacity:1;" d="M 110.1875 127.628906 C 107.117188 127.628906 104.753906 126.945312 103.164062 125.601562 C 91.871094 116.046875 125.320312 73.914062 126.75 72.125 L 128.277344 70.214844 L 128.664062 72.300781 C 128.980469 74.003906 136.222656 114.214844 119.8125 124.953125 C 117.21875 126.652344 114.132812 127.550781 110.640625 127.625 C 110.488281 127.628906 110.335938 127.628906 110.1875 127.628906 Z M 127.019531 74.601562 C 120.40625 83.234375 95.492188 117.066406 104.832031 124.964844 C 106.101562 126.042969 107.980469 126.542969 110.566406 126.484375 C 113.523438 126.421875 116.050781 125.679688 118.296875 124.207031 C 132.015625 115.230469 128.308594 83.277344 127.019531 74.601562 Z M 127.019531 74.601562 "/>
<path style=" stroke:none;fill-rule:nonzero;fill:rgb(42.352941%,38.823529%,100%);fill-opacity:1;" d="M 118.457031 74.734375 C 118.457031 74.734375 70.578125 105.820312 74.960938 109.09375 C 79.34375 112.367188 118.457031 74.734375 118.457031 74.734375 Z M 118.457031 74.734375 "/>
<path style=" stroke:none;fill-rule:nonzero;fill:rgb(24.705882%,23.921569%,33.72549%);fill-opacity:1;" d="M 60.558594 120.425781 C 59.925781 120.433594 59.304688 120.316406 58.800781 120.097656 C 58.113281 119.777344 57.699219 119.308594 57.664062 118.800781 C 56.460938 111.078125 120.191406 70.835938 122.90625 69.128906 L 129.320312 65.085938 L 124.519531 69.796875 C 122.472656 71.800781 74.257812 118.949219 61.273438 120.386719 C 61.039062 120.414062 60.796875 120.425781 60.558594 120.425781 Z M 117.625 74.210938 C 96.511719 87.824219 58.828125 113.339844 59.664062 118.703125 C 59.648438 118.890625 59.785156 119.074219 60.035156 119.199219 C 60.285156 119.296875 60.601562 119.320312 60.890625 119.269531 C 69.863281 118.273438 101.207031 89.894531 117.625 74.210938 Z M 117.625 74.210938 "/>
<path style=" stroke:none;fill-rule:nonzero;fill:rgb(42.352941%,38.823529%,100%);fill-opacity:1;" d="M 104.085938 53.800781 C 104.085938 53.800781 62.347656 25.808594 23.746094 28.523438 C -14.851562 31.234375 104.085938 53.800781 104.085938 53.800781 Z M 104.085938 53.800781 "/>
<path style=" stroke:none;fill-rule:nonzero;fill:rgb(24.705882%,23.921569%,33.72549%);fill-opacity:1;" d="M 109.652344 55.109375 L 106.367188 54.683594 C 106.101562 54.648438 79.722656 51.210938 53.636719 46.832031 C 0.230469 37.859375 0.0585938 33.730469 0 32.375 C -0.0664062 30.742188 2.867188 29.476562 8.96875 28.507812 C 31.617188 24.917969 57.191406 31.988281 74.652344 38.554688 C 86.375 43 97.3125 48.085938 107.3125 53.730469 Z M 21.929688 28.675781 C 17.734375 28.660156 13.554688 28.976562 9.507812 29.605469 C 4.628906 30.378906 1.964844 31.351562 2.007812 32.347656 C 2.234375 37.820312 61.464844 47.574219 103.355469 53.117188 C 93.453125 47.726562 56.042969 28.675781 21.929688 28.675781 Z M 21.929688 28.675781 "/>
<path style=" stroke:none;fill-rule:nonzero;fill:rgb(42.352941%,38.823529%,100%);fill-opacity:1;" d="M 71.460938 51.847656 C 71.460938 51.847656 16.265625 49.566406 20.277344 55.265625 C 24.292969 60.964844 71.460938 51.847656 71.460938 51.847656 Z M 71.460938 51.847656 "/>
<path style=" stroke:none;fill-rule:nonzero;fill:rgb(42.352941%,38.823529%,100%);fill-opacity:1;" d="M 85.511719 30.765625 C 85.511719 30.765625 82.503906 22.789062 77.484375 24.5 C 72.464844 26.207031 85.511719 30.765625 85.511719 30.765625 Z M 85.511719 30.765625 "/>
<path style=" stroke:none;fill-rule:nonzero;fill:rgb(42.352941%,38.823529%,100%);fill-opacity:1;" d="M 136.363281 36.410156 C 136.363281 36.410156 150.132812 3.558594 143.890625 3.4375 C 137.652344 3.316406 136.363281 36.410156 136.363281 36.410156 Z M 136.363281 36.410156 "/>
<path style=" stroke:none;fill-rule:nonzero;fill:rgb(24.705882%,23.921569%,33.72549%);fill-opacity:1;" d="M 133.800781 43.683594 L 133.6875 39.320312 C 133.648438 37.917969 132.882812 4.949219 140.433594 0.597656 C 141.019531 0.230469 141.84375 0.0117188 142.71875 0 C 143.570312 0.00390625 144.367188 0.234375 144.871094 0.625 C 150.679688 4.851562 137.21875 35.921875 135.664062 39.449219 Z M 142.71875 1.140625 C 142.617188 1.140625 142.316406 1.140625 141.867188 1.398438 C 136.878906 4.273438 135.722656 23.386719 135.652344 34.628906 C 141.179688 21.234375 146.816406 3.890625 143.289062 1.328125 C 143.167969 1.210938 142.953125 1.140625 142.71875 1.140625 Z M 142.71875 1.140625 "/>
<path style=" stroke:none;fill-rule:nonzero;fill:rgb(42.352941%,38.823529%,100%);fill-opacity:1;" d="M 199.925781 41.023438 C 199.925781 41.023438 205.945312 32.476562 211.96875 34.753906 C 217.988281 37.035156 199.925781 41.023438 199.925781 41.023438 Z M 199.925781 41.023438 "/>
<path style=" stroke:none;fill-rule:nonzero;fill:rgb(42.352941%,38.823529%,100%);fill-opacity:1;" d="M 142.71875 116.800781 C 142.71875 116.800781 134.691406 150.414062 149.746094 149.84375 C 164.796875 149.273438 142.71875 116.800781 142.71875 116.800781 Z M 142.71875 116.800781 "/>
<path style=" stroke:none;fill-rule:nonzero;fill:rgb(100%,72.54902%,72.54902%);fill-opacity:1;" d="M 184.71875 109.15625 C 184.71875 109.15625 177.023438 101.875 177.023438 96.78125 C 177.023438 96.78125 163.5625 88.773438 167.410156 86.589844 C 171.253906 84.40625 179.589844 92.777344 179.589844 92.777344 C 179.589844 92.777344 164.203125 82.953125 168.691406 81.496094 C 173.179688 80.039062 187.921875 90.957031 187.921875 90.957031 L 193.050781 89.503906 C 193.050781 89.503906 182.15625 74.25 189.84375 73.855469 C 193.371094 73.671875 201.382812 88.410156 201.382812 88.410156 L 209.71875 100.421875 C 209.71875 100.421875 212.921875 104.789062 211.640625 107.335938 C 210.859375 108.890625 210.21875 110.472656 209.71875 112.066406 Z M 184.71875 109.15625 "/>
<use xlink:href="#surface5" mask="url(#mask0)"/>
<path style=" stroke:none;fill-rule:nonzero;fill:rgb(100%,72.54902%,72.54902%);fill-opacity:1;" d="M 207.152344 110.972656 C 207.152344 110.972656 211.640625 106.972656 210.015625 100.859375 C 208.394531 94.746094 199.460938 91.320312 199.460938 91.320312 C 199.460938 91.320312 193.691406 93.871094 199.460938 100.421875 C 199.460938 100.421875 192.410156 104.058594 198.179688 109.882812 "/>
<use xlink:href="#surface8" mask="url(#mask1)"/>
<path style=" stroke:none;fill-rule:nonzero;fill:rgb(100%,72.54902%,72.54902%);fill-opacity:1;" d="M 192.410156 90.59375 L 187.28125 86.589844 C 187.28125 86.589844 170.613281 85.136719 172.539062 88.410156 C 174.460938 91.6875 182.152344 90.230469 182.152344 90.230469 L 186.640625 92.777344 Z M 192.410156 90.59375 "/>
<path style=" stroke:none;fill-rule:nonzero;fill:rgb(100%,72.54902%,72.54902%);fill-opacity:1;" d="M 311.324219 138.449219 L 308.117188 153.007812 L 358.121094 154.828125 L 358.121094 137.359375 Z M 311.324219 138.449219 "/>
<path style=" stroke:none;fill-rule:nonzero;fill:rgb(81.176471%,80%,87.843137%);fill-opacity:1;" d="M 449.789062 219.96875 L 409.242188 173.929688 C 406.816406 169.375 399.253906 161.957031 375.75 157.191406 L 358.121094 148.726562 L 344.980469 148.457031 L 292.414062 144.089844 C 292.414062 144.089844 252.027344 142.636719 225.746094 151.734375 L 218.691406 149.914062 C 218.691406 149.914062 207.152344 126.621094 212.28125 109.882812 L 182.792969 108.425781 C 182.792969 108.425781 166.769531 148.09375 174.460938 160.105469 C 182.152344 172.113281 210.359375 180.847656 210.359375 180.847656 L 235.359375 195.039062 L 244.976562 219.785156 L 394.980469 219.785156 L 397.367188 213.292969 L 409.082031 219.785156 Z M 449.789062 219.96875 "/>
<path style=" stroke:none;fill-rule:nonzero;fill:rgb(81.176471%,80%,87.843137%);fill-opacity:1;" d="M 393.09375 137.359375 C 345.867188 144.601562 299.445312 145.113281 254.007812 137.472656 C 248.667969 136.574219 245.015625 133.910156 245.015625 130.890625 L 245.015625 55.539062 C 245.015625 52.164062 249.535156 49.289062 255.695312 48.742188 C 298.558594 44.925781 343.964844 45.21875 391.457031 48.882812 C 397.734375 49.367188 402.390625 52.277344 402.390625 55.699219 L 402.390625 130.730469 C 402.390625 133.816406 398.589844 136.519531 393.09375 137.359375 Z M 393.09375 137.359375 "/>
<path style=" stroke:none;fill-rule:nonzero;fill:rgb(24.705882%,23.921569%,33.72549%);fill-opacity:1;" d="M 295.695312 85.796875 C 295.695312 85.796875 284.832031 76.785156 291.515625 74.410156 C 298.203125 72.039062 308.230469 78.679688 308.230469 78.679688 C 308.230469 78.679688 320.761719 72.515625 327.449219 74.886719 C 334.132812 77.257812 320.761719 85.796875 320.761719 85.796875 C 320.761719 85.796875 330.789062 87.21875 331.625 91.015625 C 332.460938 94.808594 335.804688 104.773438 321.597656 105.246094 C 313.988281 105.5 309.734375 104.257812 307.425781 103.046875 C 305.691406 102.164062 303.066406 102.144531 301.292969 103.007812 C 296.476562 105.308594 287.800781 107.964844 281.488281 101.449219 C 278.984375 91.488281 295.695312 85.796875 295.695312 85.796875 Z M 295.695312 85.796875 "/>
<path style=" stroke:none;fill-rule:nonzero;fill:rgb(24.705882%,23.921569%,33.72549%);fill-opacity:1;" d="M 375.914062 86.746094 C 375.914062 86.746094 386.773438 77.730469 380.089844 75.359375 C 373.40625 72.988281 363.378906 79.628906 363.378906 79.628906 C 363.378906 79.628906 350.84375 73.464844 344.160156 75.835938 C 337.476562 78.207031 350.84375 86.746094 350.84375 86.746094 C 350.84375 86.746094 340.816406 88.167969 339.980469 91.964844 C 339.144531 95.757812 335.804688 105.71875 350.007812 106.195312 C 357.617188 106.449219 361.871094 105.207031 364.179688 103.996094 C 365.917969 103.113281 368.539062 103.09375 370.3125 103.953125 C 375.128906 106.257812 383.804688 108.914062 390.117188 102.398438 C 392.625 92.4375 375.914062 86.746094 375.914062 86.746094 Z M 375.914062 86.746094 "/>
<path style=" stroke:none;fill-rule:nonzero;fill:rgb(24.705882%,23.921569%,33.72549%);fill-opacity:1;" d="M 282.507812 111.378906 C 282.507812 111.378906 298.183594 118.542969 331.605469 118.089844 C 365.03125 117.640625 375.839844 116.863281 382.984375 112.390625 C 390.128906 107.921875 392.246094 113.085938 390.027344 116.472656 C 387.8125 119.859375 384.960938 125.636719 368.308594 126.574219 C 357.347656 127.1875 333.65625 127.335938 318.742188 127.363281 C 307.152344 127.417969 295.695312 125.96875 285.238281 123.132812 C 285.101562 123.09375 284.964844 123.054688 284.824219 123.015625 C 278.355469 121.203125 274.257812 117.460938 274.257812 113.363281 C 274.257812 111.769531 274.753906 110.90625 276.582031 110.59375 C 279.878906 110.027344 282.507812 111.378906 282.507812 111.378906 Z M 282.507812 111.378906 "/>
<path style=" stroke:none;fill-rule:nonzero;fill:rgb(24.705882%,23.921569%,33.72549%);fill-opacity:1;" d="M 330.457031 144.203125 C 304.910156 144.210938 279.507812 142.023438 255.113281 137.714844 C 248.917969 136.636719 244.691406 133.386719 244.707031 129.707031 L 244.707031 41.429688 C 244.683594 37.324219 249.925781 33.820312 257.066406 33.164062 C 303.097656 28.855469 354.074219 28.914062 408.570312 33.332031 C 415.820312 33.9375 421.199219 37.464844 421.226562 41.625 L 421.226562 129.519531 C 421.199219 133.269531 416.8125 136.554688 410.464844 137.585938 C 383.777344 141.882812 357.398438 144.109375 332.050781 144.199219 C 331.519531 144.203125 330.984375 144.203125 330.457031 144.203125 Z M 328.679688 30.59375 C 304.753906 30.546875 280.863281 31.613281 257.242188 33.773438 C 250.628906 34.382812 245.777344 37.628906 245.796875 41.429688 L 245.796875 129.707031 C 245.785156 133.113281 249.699219 136.125 255.4375 137.121094 C 304.140625 145.730469 356.199219 145.683594 410.167969 136.992188 L 410.316406 137.289062 L 410.167969 136.992188 C 416.046875 136.035156 420.109375 132.992188 420.136719 129.519531 L 420.136719 41.625 C 420.109375 37.769531 415.128906 34.503906 408.414062 33.941406 C 382.007812 31.757812 355.363281 30.640625 328.679688 30.59375 Z M 328.679688 30.59375 "/>
<path style=" stroke:none;fill-rule:nonzero;fill:rgb(24.705882%,23.921569%,33.72549%);fill-opacity:1;" d="M 325.332031 43.683594 C 313.328125 43.683594 303.054688 43.375 294.644531 42.960938 C 268.191406 41.660156 253.9375 39.03125 253.796875 39.003906 L 254.136719 38.417969 C 254.277344 38.445312 268.445312 41.054688 294.789062 42.347656 C 319.105469 43.542969 359.058594 43.832031 411.320312 38.40625 L 411.515625 39.015625 C 377.183594 42.578125 348.136719 43.683594 325.332031 43.683594 Z M 325.332031 43.683594 "/>
</g>
</svg>
